<?xml version="1.0" encoding="UTF-8"?>
<svg width="24px" height="24px" viewBox="0 0 24 24" version="1.1" xmlns="http://www.w3.org/2000/svg">
    <path d="M19,3 C20.1046,3 21,3.89543 21,5 L21,19 C21,20.1046 20.1046,21 19,21 L5,21 C3.89543,21 3,20.1046 3,19 L3,5 C3,3.89543 3.89543,3 5,3 L19,3 Z M18.5,18.5 L18.5,13.2998 C18.5,11.6198 17.9399,10.2998 16.2199,10.2998 C15.4099,10.2998 14.7699,10.7198 14.5499,11.1898 L14.5499,10.4998 L12.5499,10.4998 L12.5499,18.4998 L14.5499,18.4998 L14.5499,13.7998 C14.5499,13.1998 14.6999,12.5998 15.4699,12.5998 C16.2399,12.5998 16.4999,13.2998 16.4999,13.7998 L16.4999,18.4998 L18.5,18.4998 L18.5,18.5 Z M6.98,8.56 C7.74,8.56 8.34,7.98 8.34,7.24 C8.34,6.5 7.74,5.92 6.98,5.92 C6.22,5.92 5.62,6.5 5.62,7.24 C5.62,7.98 6.22,8.56 6.98,8.56 Z M8,18.5 L8,10.5 L6,10.5 L6,18.5 L8,18.5 Z" fill="#8B5CF6"/>
</svg>
