<?xml version="1.0" encoding="UTF-8"?>
<svg width="24px" height="24px" viewBox="0 0 24 24" version="1.1" xmlns="http://www.w3.org/2000/svg">
    <path d="M23,5.13 C22.19,5.48 21.32,5.71 20.41,5.82 C21.34,5.24 22.05,4.33 22.38,3.24 C21.51,3.77 20.54,4.15 19.52,4.34 C18.7,3.44 17.51,2.89 16.19,2.89 C13.65,2.89 11.59,4.95 11.59,7.49 C11.59,7.83 11.63,8.16 11.7,8.47 C7.89,8.29 4.51,6.45 2.24,3.69 C1.87,4.32 1.66,5.05 1.66,5.83 C1.66,7.31 2.42,8.61 3.58,9.35 C2.83,9.33 2.13,9.12 1.52,8.77 L1.52,8.83 C1.52,11.07 3.11,12.93 5.24,13.33 C4.88,13.43 4.5,13.48 4.1,13.48 C3.82,13.48 3.56,13.45 3.29,13.4 C3.83,15.23 5.51,16.58 7.5,16.62 C5.93,17.87 3.97,18.61 1.85,18.61 C1.5,18.61 1.16,18.59 0.82,18.55 C2.83,19.87 5.18,20.64 7.71,20.64 C16.19,20.64 20.82,13.55 20.82,7.42 C20.82,7.23 20.82,7.04 20.81,6.85 C21.69,6.19 22.45,5.37 23,4.44 L23,5.13 Z" fill="#8B5CF6"/>
</svg>
